<svg xmlns="http://www.w3.org/2000/svg" xmlns:xlink="http://www.w3.org/1999/xlink" version="1.1" x="0px" y="0px" viewBox="0 0 100 125" enable-background="new 0 0 100 100" xml:space="preserve"><g><path fill="none" d="M37.866,35.792c0,0,0.396-0.784-0.369-0.748c-0.764,0.034-0.371,0.748-0.371,0.748s-0.72-0.464-0.825,0.121   c-0.106,0.586,0.596,0.583,0.596,0.583s-0.642,0.554-0.141,0.822c0.501,0.268,0.739-0.388,0.739-0.388   c0-0.001,0.071,0.812,0.739,0.388c0.668-0.425-0.14-0.822-0.14-0.822s0.803,0.049,0.597-0.583   C38.487,35.281,37.866,35.792,37.866,35.792z"/><path fill="none" d="M37.401,31.225c0,0,0.701-1.396-0.658-1.333c-1.36,0.063-0.657,1.333-0.657,1.333s-1.286-0.83-1.472,0.214   c-0.188,1.041,1.063,1.038,1.063,1.038s-1.143,0.988-0.251,1.464c0.893,0.477,1.316-0.691,1.316-0.691s0.125,1.449,1.316,0.691   c1.19-0.757-0.251-1.464-0.251-1.464s1.43,0.086,1.064-1.038C38.507,30.313,37.401,31.225,37.401,31.225z"/><path fill="none" d="M27.104,33.75l7.332,2.269c-0.892-4.431-3.212-8.449-3.212-8.449L27.104,33.75z"/><path fill="none" d="M39.547,30.144c0,0-0.642,0.556-0.142,0.822c0.501,0.269,0.738-0.388,0.738-0.388s0.072,0.813,0.739,0.388   c0.668-0.424-0.14-0.822-0.14-0.822s0.804,0.049,0.597-0.583c-0.205-0.632-0.827-0.121-0.827-0.121s0.396-0.783-0.369-0.747   c-0.763,0.034-0.369,0.747-0.369,0.747s-0.72-0.464-0.825,0.121C38.845,30.147,39.547,30.144,39.547,30.144z"/><path fill="none" d="M41.39,36.99c0,0,0.396-0.783-0.369-0.748c-0.763,0.036-0.369,0.748-0.369,0.748s-0.721-0.464-0.826,0.121   s0.598,0.583,0.598,0.583s-0.642,0.554-0.142,0.822c0.5,0.268,0.738-0.388,0.738-0.388s0.071,0.814,0.739,0.388   c0.667-0.424-0.141-0.822-0.141-0.822s0.805,0.049,0.599-0.583S41.39,36.99,41.39,36.99z"/><path fill="none" d="M55.871,62.356l-0.345-16.295l-5.093-6.695l0.209-2.134l0.002-0.008l0.003-0.008   c-0.487-1.548-0.455-5.069-1.815-6.103c-1.71-1.298-1.965,1.646-2.266,3.038c-1.756,8.135,3.99,14.735,3.906,22.861   c-0.055,5.273-3.357,9.566-4.687,14.533c-1.422,5.311-2.305,10.867,3.264,13.82c2.827,1.5,6.138,2.008,9.397,2.295l-1.104-24.604   L55.871,62.356z"/><path fill="none" d="M41.651,32.947c0,0,0.681-1.352-0.638-1.291c-1.318,0.061-0.639,1.291-0.639,1.291s-1.245-0.801-1.424,0.207   c-0.183,1.011,1.031,1.006,1.031,1.006s-1.108,0.957-0.244,1.42c0.864,0.461,1.276-0.671,1.276-0.671s0.122,1.404,1.274,0.671   c1.153-0.733-0.242-1.42-0.242-1.42s1.387,0.085,1.031-1.006C42.723,32.064,41.651,32.947,41.651,32.947z"/><path fill="none" d="M76.677,26.662c0,0,1.479-0.464,1.072-1.237c-0.405-0.773-1.625,0.109-1.625,0.109s0.424-1.384-0.839-1.153   c-1.262,0.231-0.602,1.437-0.602,1.437s-1.446-0.572-1.59,0.524c-0.145,1.096,1.256,0.779,1.256,0.779s-1.204,0.946-0.144,1.477   c1.059,0.532,1.376-0.955,1.376-0.955s0.493,1.07,1.5,0.388C78.089,27.349,76.677,26.662,76.677,26.662z"/><path fill="none" d="M45.634,35.668c0.667-0.424-0.141-0.821-0.141-0.821s0.803,0.05,0.598-0.583   c-0.206-0.631-0.826-0.12-0.826-0.12s0.394-0.783-0.369-0.748c-0.765,0.035-0.369,0.748-0.369,0.748s-0.721-0.466-0.827,0.12   c-0.106,0.585,0.597,0.583,0.597,0.583s-0.642,0.554-0.142,0.821c0.501,0.268,0.74-0.388,0.74-0.388S44.965,36.095,45.634,35.668z"/><path fill="none" d="M44.336,31.433c0,0,0.101,1.184,1.074,0.565c0.97-0.617-0.205-1.196-0.205-1.196s1.17,0.072,0.87-0.848   c-0.3-0.918-1.202-0.174-1.202-0.174s0.575-1.139-0.537-1.087C43.225,28.744,43.8,29.78,43.8,29.78s-1.048-0.678-1.201,0.174   c-0.155,0.852,0.867,0.848,0.867,0.848s-0.934,0.807-0.206,1.196C43.989,32.387,44.336,31.433,44.336,31.433z"/><path d="M68.421,15.676c3.225,0,5.838-4.101,5.838-7.946c0-3.847-2.613-5.981-5.838-5.98c-3.223,0-5.836,2.134-5.836,5.98   C62.585,11.576,65.198,15.676,68.421,15.676z"/><path d="M71.337,20.606c1.381-1.621,0.689-4.053,0-4.053c-0.691,0-2.045,1.183-2.045,1.183H67.96c0,0-1.353-1.183-2.044-1.183   c-0.692,0-1.382,2.431,0,4.053c0.49,0.573,2.044-1.182,2.044-1.182h1.332C69.292,19.424,70.849,21.179,71.337,20.606z"/><path d="M25.457,53.276c0.917,0.019,3.177,0.273,4.318,0.143c0,0,0.819-1.868,1.518-3.752c0,0-4.46,0.54-7.465-0.491   c-3.004-1.03-3.236-5.711-5.65-7.602c-2.075-1.924-4.411-1.732-5.973-2.526c-1.204-0.612-1.865-1.096-1.94-2.072   c-0.255-3.324,6.418-4.708,13.218-12.948c6.618-8.08,8.625-15.168,11.334-17.635c-0.242,0.705-0.375,1.503-0.375,2.396   c0,3.911,2.393,8.223,5.458,8.223c3.067,0,5.642-4.312,5.642-8.223c0-3.911-2.416-6.052-5.483-6.052   c-1.341,0-2.584,0.409-3.557,1.198l-0.342,0.436c-0.594,0.134-1.498,0.694-2.1,1.332c-2.854,3.024-5.653,11.121-10.99,17.381   c-5.227,6.007-9.355,7.512-15.726,12.295c-0.596,0.447-2.23,2.541,0.126,5.107c0.683,0.793,1.65,1.039,2.945,1.452   c1.476,0.472,4.009,1.153,5.084,2.004c1.271,0.93,2.815,5.086,3.951,6.436C21.11,52.351,23.826,53.128,25.457,53.276z"/><path d="M77.056,89.714c0.755-9.799,1.918-26.7,1.918-26.7l1.545-0.601l0.744-8.429l4.243-12.042v-1.968   c0,0-0.048-16.264-4.172-19.566c-1.325-1.061-6.311-1.062-6.311-1.062l-1.5-1.696l-4.897,15.745l-4.974-15.787l-1.695,1.738   c0,0-4.658-0.063-6.052,1.03c-2.035,1.598-2.463,9.027-2.463,9.027c-0.472-2.572-0.866-5.191-1.276-6.048   c-1.101-2.298-3.145-3.966-6.212-3.052l1.725,5.208c0,0-4.004-4.164-7.092,0.987l-0.091-0.007c-3.089-5.15-7.21-0.979-7.21-0.979   l2.061-6.23c-3.069-0.915-5.408-1.747-6.508,0.551c-0.773,1.613-7.402,15.879-6.113,16.96c3.469,2.905,13.254-0.928,11.894,6.224   c-0.979,5.146-5.106,9.399-4.377,14.924c0.446,3.382,2.93,5.278,4.614,8.023c4.916,8.016,1.599,21.169-7.276,24.966   c-1.842,0.789-16.93,5.604-8.562,6.314c0,0,16.995,1.656,25.557,1.671c3.342,0.005,10.093-0.188,17.205-0.614   c0.009-0.092,0.015-0.186,0.028-0.277l0.025,0.273c11.506-0.691,23.938-1.998,24.416-4.082   C86.726,92.142,82.258,90.693,77.056,89.714z M38.95,29.561c0.105-0.585,0.825-0.121,0.825-0.121s-0.395-0.713,0.369-0.747   c0.765-0.036,0.369,0.747,0.369,0.747s0.622-0.511,0.827,0.121c0.207,0.632-0.597,0.583-0.597,0.583s0.809,0.398,0.14,0.822   c-0.667,0.425-0.739-0.388-0.739-0.388s-0.237,0.657-0.738,0.388c-0.5-0.267,0.142-0.822,0.142-0.822S38.845,30.147,38.95,29.561z    M27.104,33.75l4.12-6.18c0,0,2.32,4.019,3.212,8.449L27.104,33.75z M38.095,36.496c0,0,0.809,0.397,0.14,0.822   c-0.668,0.425-0.739-0.389-0.739-0.388c0,0-0.238,0.655-0.739,0.388c-0.501-0.268,0.141-0.822,0.141-0.822   s-0.703,0.003-0.596-0.583c0.105-0.585,0.825-0.121,0.825-0.121s-0.394-0.714,0.371-0.748c0.765-0.036,0.369,0.748,0.369,0.748   s0.621-0.512,0.826,0.121C38.898,36.545,38.095,36.496,38.095,36.496z M37.808,32.477c0,0,1.441,0.708,0.251,1.464   c-1.191,0.758-1.316-0.691-1.316-0.691s-0.423,1.168-1.316,0.691c-0.892-0.477,0.251-1.464,0.251-1.464s-1.251,0.003-1.063-1.038   c0.186-1.044,1.472-0.214,1.472-0.214s-0.703-1.271,0.657-1.333c1.359-0.062,0.658,1.333,0.658,1.333s1.106-0.912,1.472,0.214   C39.238,32.563,37.808,32.477,37.808,32.477z M41.619,37.694c0,0,0.809,0.398,0.141,0.822c-0.668,0.426-0.739-0.388-0.739-0.388   s-0.238,0.656-0.738,0.388c-0.5-0.268,0.142-0.822,0.142-0.822s-0.703,0.002-0.598-0.583s0.826-0.121,0.826-0.121   s-0.394-0.712,0.369-0.748c0.765-0.035,0.369,0.748,0.369,0.748s0.621-0.512,0.827,0.121S41.619,37.694,41.619,37.694z    M42.045,34.16c0,0,1.395,0.687,0.242,1.42c-1.152,0.733-1.274-0.671-1.274-0.671s-0.412,1.132-1.276,0.671   c-0.865-0.463,0.244-1.42,0.244-1.42s-1.213,0.004-1.031-1.006c0.18-1.008,1.424-0.207,1.424-0.207s-0.68-1.23,0.639-1.291   c1.318-0.061,0.638,1.291,0.638,1.291s1.072-0.883,1.425,0.207C43.432,34.245,42.045,34.16,42.045,34.16z M43.261,31.998   c-0.728-0.389,0.206-1.196,0.206-1.196s-1.021,0.004-0.867-0.848c0.152-0.852,1.201-0.174,1.201-0.174s-0.576-1.036,0.536-1.087   c1.112-0.052,0.537,1.087,0.537,1.087s0.902-0.745,1.202,0.174c0.301,0.92-0.87,0.848-0.87,0.848s1.175,0.579,0.205,1.196   c-0.973,0.619-1.074-0.565-1.074-0.565S43.989,32.387,43.261,31.998z M44.155,35.668c-0.5-0.267,0.142-0.821,0.142-0.821   s-0.703,0.002-0.597-0.583c0.105-0.586,0.827-0.12,0.827-0.12s-0.396-0.713,0.369-0.748c0.763-0.036,0.369,0.748,0.369,0.748   s0.62-0.511,0.826,0.12c0.206,0.633-0.598,0.583-0.598,0.583s0.808,0.397,0.141,0.821c-0.668,0.427-0.738-0.388-0.738-0.388   S44.656,35.936,44.155,35.668z M49.05,85.366c-5.569-2.953-4.687-8.51-3.264-13.82c1.33-4.967,4.632-9.26,4.687-14.533   c0.084-8.126-5.662-14.726-3.906-22.861c0.301-1.393,0.555-4.336,2.266-3.038c1.36,1.034,1.328,4.555,1.815,6.103l-0.003,0.008   l-0.002,0.008l-0.209,2.134l5.093,6.695l0.345,16.295l1.472,0.7l1.104,24.604C55.188,87.374,51.877,86.866,49.05,85.366z    M75.582,27.642c0,0-0.317,1.486-1.376,0.955c-1.061-0.531,0.144-1.477,0.144-1.477s-1.4,0.317-1.256-0.779   c0.144-1.096,1.59-0.524,1.59-0.524s-0.66-1.206,0.602-1.437c1.263-0.23,0.839,1.153,0.839,1.153s1.22-0.882,1.625-0.109   c0.406,0.773-1.072,1.237-1.072,1.237s1.412,0.687,0.405,1.369C76.075,28.712,75.582,27.642,75.582,27.642z"/><path d="M61.78,98.301c-0.005,0.055-0.017,0.106-0.017,0.163h0.087l-0.017-0.167l-0.025-0.273   C61.795,98.115,61.789,98.209,61.78,98.301z"/><circle cx="68.57" cy="22.114" r="0.601"/><circle cx="68.57" cy="25.204" r="0.601"/><circle cx="68.57" cy="28.294" r="0.601"/><path d="M54.12,16.639h0.102c0.954-1.601,3.822-4.546,4.481-6.829c1.477-5.115-4.2-4.275-4.532-0.41H54.17   c0-3.819-6.01-4.706-4.533,0.41C50.298,12.092,53.165,15.038,54.12,16.639z"/></g></svg>